/* XPM */
static xpm_row_t three_xpm[] = {
/* columns rows colors chars-per-pixel */
"64 96 2 1 ",
"  c #FF00F0",
". c #ffffff",
/* pixels */
"                                                                ",
"                                                                ",
"                                                                ",
"                                                                ",
"                                                                ",
"                                                                ",
"                                                                ",
"                                                                ",
"                                                                ",
"                                                                ",
"                                                                ",
"                                                                ",
"                                                                ",
"                                                                ",
"                       .............                            ",
"                   ......................                       ",
"                ............................                    ",
"              ................................                  ",
"             ..................................                 ",
"           .....................................                ",
"          .......................................               ",
"         ................          ...............              ",
"          ...........                  ............             ",
"             .....                       ...........            ",
"               ..                          .........            ",
"                                            ........            ",
"                                            .........           ",
"                                             ........           ",
"                                             ........           ",
"                                             ........           ",
"                                             ........           ",
"                                             ........           ",
"                                            .........           ",
"                                            ........            ",
"                                           .........            ",
"                                           .........            ",
"                                          .........             ",
"                                         ..........             ",
"                                        ..........              ",
"                                       ..........               ",
"                                      ...........               ",
"                                     ...........                ",
"                                   ............                 ",
"                                  ............                  ",
"                               ..............                   ",
"                           .................                    ",
"                      ....................                      ",
"                      ...................                       ",
"                      .................                         ",
"                      ...............                           ",
"                      .................                         ",
"                      ...................                       ",
"                      .....................                     ",
"                             ...............                    ",
"                                 .............                  ",
"                                   ............                 ",
"                                    ............                ",
"                                      ...........               ",
"                                       ..........               ",
"                                        ..........              ",
"                                         ..........             ",
"                                          ..........            ",
"                                           .........            ",
"                                            .........           ",
"                                            .........           ",
"                                             ........           ",
"                                             .........          ",
"                                              ........          ",
"                                              ........          ",
"                                              ........          ",
"                                               .......          ",
"                                               ........         ",
"                                               ........         ",
"                                              ........          ",
"                                              ........          ",
"                                             .........          ",
"                                            ..........          ",
"              .                            ..........           ",
"           ......                         ...........           ",
"         ...........                   .............            ",
"        ................           ................             ",
"         .........................................              ",
"          .......................................               ",
"           .....................................                ",
"             .................................                  ",
"               .............................                    ",
"                  .......................                       ",
"                                                                ",
"                                                                ",
"                                                                ",
"                                                                ",
"                                                                ",
"                                                                ",
"                                                                ",
"                                                                ",
"                                                                "
};
