/* XPM */
static xpm_row_t eight_xpm[] = {
/* columns rows colors chars-per-pixel */
"64 96 2 1 ",
"  c #FFFFFF",
". c #FF00F0",
/* pixels */
"................................................................",
"................................................................",
"................................................................",
"................................................................",
"................................................................",
"................................................................",
"................................................................",
"................................................................",
"................................................................",
"................................................................",
"................................................................",
"................................................................",
"................................................................",
"................................................................",
".........................            ...........................",
"....................                     .......................",
"..................                          ....................",
"................                              ..................",
"..............                                 .................",
".............                                   ................",
"............                                     ...............",
"...........              ...........              ..............",
"...........           .................            .............",
"..........          .....................          .............",
"..........         ........................        .............",
"..........        .........................         ............",
"..........        ..........................        ............",
"..........       ...........................        ............",
"..........       ...........................        ............",
"..........        ..........................        ............",
"..........        ..........................        ............",
"..........        .........................        .............",
"..........         ........................        .............",
"...........         ......................         .............",
"...........          ....................         ..............",
"............          ..................          ..............",
"............           ................          ...............",
".............           ..............          ................",
"..............           ............           ................",
"...............           ..........           .................",
"................           ........           ..................",
"................            ......           ...................",
".................           .....           ....................",
"..................           ...           .....................",
"...................           .           ......................",
".....................                    .......................",
"......................                  ........................",
".......................                .........................",
"........................              ..........................",
".........................           ............................",
".........................           ............................",
"........................             ...........................",
".......................               ..........................",
"......................                 .........................",
".....................                   ........................",
"....................          .          .......................",
"...................          ...           .....................",
"..................          .....           ....................",
".................          .......           ...................",
"................          .........           ..................",
"...............          ...........           .................",
"..............          .............           ................",
".............          ...............           ...............",
"............          .................          ...............",
"...........          ...................          ..............",
"..........          .....................          .............",
"..........         .......................          ............",
".........         .........................         ............",
".........        ...........................         ...........",
"........         ............................        ...........",
"........        .............................        ...........",
"........        ..............................        ..........",
"........        ..............................        ..........",
"........        ..............................        ..........",
"........        ..............................        ..........",
"........        .............................         ..........",
"........        .............................        ...........",
"........         ...........................         ...........",
".........          ........................          ...........",
".........            ...................            ............",
"..........               ...........               .............",
"...........                                        .............",
"............                                      ..............",
".............                                   ................",
"..............                                 .................",
".................                            ...................",
"...................                       ......................",
"................................................................",
"................................................................",
"................................................................",
"................................................................",
"................................................................",
"................................................................",
"................................................................",
"................................................................",
"................................................................"
};
