/* XPM */

static xpm_row_t ball_xpm[] = {
"16 16 3 1",
" 	c #FF00F0",
".	c #FFCCE5",
"+	c #FFFFFF",
"     ......     ",
"   ..++++++..   ",
"  ..++++++++..  ",
" ..+++....+++.. ",
" .++........++. ",
".+++........+++.",
".++..........++.",
".++..........++.",
".++..........++.",
".++..........++.",
".+++........+++.",
" .++........++. ",
" ..+++....+++.. ",
"  ..++++++++..  ",
"   ..++++++..   ",
"     ......     "};
