/* XPM */
static xpm_row_t brick_xpm[] = {
/* columns rows colors chars-per-pixel */
"64 32 4 1 ",
"  c #FF3333",
". c #0C0C0C",
"X c #F9F9F9",
"o c #FFFFFF",
/* pixels */
"oooooooooooooooooooooooooooooooooooooooooooooooooooooooooooooooo",
"o                                                              o",
"o oooooooooooooooooooooooooooooooooooooooooooooooooooooooooooo o",
"o oooooooooooooooooooooooooooooooooooooooooooooooooooooooooooo o",
"o oo                                                        oo o",
"o oo                                                        oo o",
"o oo                                                        oo o",
"o oo                                                        oo o",
"o oo                                                        oo o",
"o oo                                                        oo o",
"o oo                                                        oo o",
"o oo                                                        oo o",
"o oo                                                        oo o",
"o oo                                                        oo o",
"o oo                                                        oo o",
"o oo                                                        oo o",
"o oo                                                        oo o",
"o oo                                                        oo o",
"o oo                                                        oo o",
"o oo                                                        oo o",
"o oo                                                        oo o",
"o oo                                                        oo o",
"o oo                                                        oo o",
"o oo                                                        oo o",
"o oo                                                        oo o",
"o oo                                                        oo o",
"o oo                                                        oo o",
"o oo                                                        oo o",
"o oooooooooooooooooooooooooooooooooooooooooooooooooooooooooooo o",
"X oooooooooooooooooooooooooooooooooooooooooooooooooooooooooooo o",
"X                                 ....                         o",
"XXXXXXXXXXXXXXXXXXXXXXXXXXXXXXXXXXXXXXXXXXoooooooooooooooooooooo"
};
