/* XPM */
static xpm_row_t cursor_xpm[] = {
/* columns rows colors chars-per-pixel */
"41 53 99 2 ",
"   c #000000",
".  c #090907",
"X  c #070709",
"o  c #070808",
"O  c #0B0B0B",
"+  c #0D0D10",
"@  c #141414",
"#  c #16161C",
"$  c #1D1D1D",
"%  c #1E1B23",
"&  c #252525",
"*  c #26262D",
"=  c #2C2C2C",
"-  c #2D2B33",
";  c #343434",
":  c #33333A",
">  c #3B3B3B",
",  c #353541",
"<  c #383943",
"1  c #3E3B4B",
"2  c #434343",
"3  c #4a4a4a",
"4  c #4E4E51",
"5  c #49495C",
"6  c #545454",
"7  c #54545B",
"8  c #5C5C5C",
"9  c #5B5B60",
"0  c #5F5F76",
"q  c #615F7C",
"w  c #636364",
"e  c #64646D",
"r  c #6B6B6B",
"t  c #63637C",
"y  c #747474",
"u  c #737279",
"i  c #FF00F0",
"p  c #656580",
"a  c #7F7F93",
"s  c #838383",
"d  c #8C8C8C",
"f  c #8E8C92",
"g  c #939393",
"h  c #9A9A9A",
"j  c #8181A1",
"k  c #8989AA",
"l  c #9798BC",
"z  c #A4A4A4",
"x  c #ABABAC",
"c  c #AFAFBD",
"v  c #B4B4B4",
"b  c #bfbfbf",
"n  c #BCBCC1",
"m  c #AEAFDB",
"M  c #B1B1DD",
"N  c #B7B7E5",
"B  c #C5C5C5",
"V  c #CDCDCD",
"C  c #CBCBDB",
"Z  c #D0D0DB",
"A  c #DFDFDF",
"S  c #CECEFF",
"D  c #D4CDFF",
"F  c #DADAF0",
"G  c #D5D4FF",
"H  c #DAD5FF",
"J  c #DDDCFF",
"K  c #E2DDFF",
"L  c #E9DEFF",
"P  c #DFE0FF",
"I  c #E3E3E4",
"U  c #E3E2FF",
"Y  c #E6E6FF",
"T  c #E6E7FF",
"R  c #E7E7FF",
"E  c #E8E3FF",
"W  c #EBE6FF",
"Q  c #EBE7FF",
"!  c #E7E8FF",
"~  c #E9EAF9",
"^  c #EAEAFF",
"/  c #ECEBFF",
"(  c #EDEEFF",
")  c #F0EBFF",
"_  c #F3EFFF",
"`  c #F4EFFF",
"'  c #EFF0FF",
"]  c #f0f0f0",
"[  c #f2f2f2",
"{  c #f7f7f7",
"}  c #F3F3FF",
"|  c #F7F3FF",
" . c #F5F5FF",
".. c #F8F4FF",
"X. c #F8F7FF",
"o. c #F7F8FF",
"O. c #FBFBFB",
"+. c #F9F9FF",
"@. c #FFFFFF",
/* pixels */
"i i i i i s z v s s i i i i i i i i i i i i i i i i i i i i i i i i i i i i i i i ",
"i i i s s =     & i s i i i i i i i i i i i i i i i i i i i i i i i i i i i i i i ",
"i i i d             g d i i i i i i i i i i i i i i i i i i i i i i i i i i i i i ",
"i i z     y @.@.i     r s i i i i i i i i i i i i i i i i i i i i i i i i i i i i ",
"i s 6   > @.@.@.@.s   $ d i i i i i i i i i i i i i i i i i i i i i i i i i i i i ",
"i s y   h @.@.@.@.@.&   6 s i i i i i i i i i i i i i i i i i i i i i i i i i i i ",
"i s 3   x @.@.@.@.@.B   O s i i i i i i i i i i i i i i i i i i i i i i i i i i i ",
"s s 8   x @.@.@.@.@.@.;   r s i i i i i i i i i i i i i i i i i i i i i i i i i i ",
"i s y   d @.@.@.@.@.@.v   = g i i i i i i i i i i i i i i i i i i i i i i i i i i ",
"i s 2   8 @.@.@.@.@.@.@.$   s s i i i i i i i i i i i i i i i i i i i i i i i i i ",
"i i z   @ @.@.@.@.@.@.@.z   & d i i i i i i i i i i i i i i i i i i i i i i i i i ",
"i i d o   V @.@.@.@.@.@.@.@   g i i i i i i i i i i i i i i i i i i i i i i i i i ",
"i i s y   2 @.@.@.@.@.@.@.h   # d i i i i i i i i i i i i i i i i i i i i i i i i ",
"i i i g     [ @.@.@.@.@.@.@.@   r s i i i i i i i i i s i i i i i i i i i i i i i ",
"i i i s w   i @.@.@.@.@.@.@.h   $ h s s d d f f d d d d s s s s s i i i i i i i i ",
"i i i i s     @.@.@.@.@.@.@.@.O   > r 3 =             O = r > d d s i i i i i i i ",
"i i i i d @   v @.@.@.@.@.@.@.h                                   2 d d i i i i i ",
"i i i i i s   = @.@.@.@.@.@.@.@.;   $ b I @.@.d     > { A d           3 d s i i i ",
"i i i i i z     I @.@.@.@.@.@.@.v   [ @.@.@.@.@.I 3 @.@.@.@.@.    w       i i i i ",
"i i i i i s 6   8 @.@.@.@.@.@.@.O.h @.@.@.@.@.@.@.@.@.@.@.@.@.I B @.@.>   o g i i ",
"i i i i i i g     @.@.@.@.@.@.@.@.@.@.@.@.@.@.@.@.@.@.@.@.@.@.@.@.@.@.@.;   > d i ",
"i i i i i i s ;   d @.@.@.@.@.@.@.@.@.@.@.@.@.@.@.@.@.@.@.@.@.@.@.@.@.@.{     g i ",
"i i i i i i s r   $ @.@.@.@.@.@.@.@.@.@.@.@.@.@.@.@.@.@.@.@.@.@.@.@.@.@.@.3   r s ",
"i i i i i i i x O   B @.@.@.@.@.@.@.@.@.@.@.@.@.@.@.@.@.@.@.@.@.@.@.@.@.@.B   > s ",
"i i i i i i i s 6   3 @.@.@.@.@.@.@.@.@.@.@.@.@.@.@.@.@.@.@.@.@.@.@.@.+.@.@.    x ",
"i i i i i i i i x     [ @.@.@.@.@.@.@.@.@.@.@.@.@.@.@.@.@.@.@.+.+. . . . .@.-   s ",
"i i i i i i i i s 3   d @.@.@.@.@.@.@.@.@.@.@.@.@.@.+.+. . . . . .+.+. .+.@.w   3 ",
"i i i i i i i i s 2   4 @.@.@.@.@.@.@.@.@.+.+.+. . . . .+. .+. . .+. . .X.@.f   i ",
"i i i i i i i i g       @.@.@.@.@.+.+. . .+. . .+. .X. .+. .+.X. . ._ _ ( o.c   2 ",
"i i i i i i i g     &   d @. . . . . . . .+.+. . . .X.X.} _ _ ( ( ( / ( (  .Z   ; ",
"i i i i i i s r   = @.+ @ @.+. .+. .+. . . . . . ._ ( ( _ ( ( ( ( _ / ^ / Q U   o ",
"i i i i i i d O   n @.I   n @.+. .X.| } _ ` ( _ ( ( ( } ( ) / Q R R R R R ^ @.    ",
"i i i i i i h   . @.+.@.f * @.` ( ( ( ( ( ' ( _ ( ^ ^ U R R R R Q R Q U U K  .    ",
"i i i i s s 8   2 @.} _ @.; C  .( ( ' _ / ^ Q R R R R Q ! ! U U U J J J J J  .    ",
"i i i i i s 3   9 @.( ( } ~ u X.^ Q R R Q R R R R Q U U K J J J J J J K J K _     ",
"i i i i s s 3   e @._ ^ Q ) C F R R R ^ R E U K J J J J P J P J J J H G G G R o   ",
"i i i i i s 2   7 o.R R R R ^ ^ Q U K J J J J J J J P J J H G H G G G G G H ^ X   ",
"i i i i i s y   : } R E U U J J J J J J P J J J J H H G G G G G H G G D G G L o   ",
"i i i i i i g     E K J J J J J J J J J H H G G G G G H H H G G G D D D S S J o   ",
"i i i i i i s >   a ( J J K J H H G G G H G G H G G G D D D D D S S S S S S K     ",
"i i i i i i s r     E H H G G G G G G J G D G D D D S S S S S S S S S S S S P     ",
"i i i i i i i d =   < ( H H G G G G D D D D S S S S S S S S S S S S S S S S U     ",
"i i i i i i i s i     , ^ J G D D S S S S S S S S S S S S S S S S S S S S S J     ",
"i i i i i i i i i v       m R S S S S S S S S S S S S S S S S S S S S S S G S   @ ",
"i i i i i i i i i i i #     5 D J S S S S S S S S S S S S S S S S S S S S G N   $ ",
"i i i i i i i i i i i z 9       0 J J S S S S S S S S S S S S S S S S D G R M   > ",
"i i i i i i i i i i i i s z 2       t H J S S S S S S S S S S S S G U J l 1     8 ",
"i i i i i i i i i i i i i i s s =       q H J G S S S S S G G U G k ,         & s ",
"i i i i i i i i i i i i i i i i d s =       j U G S G J U S a -         > 8 h s i ",
"i i i i i i i i i i i i i i i i i i d s ;     % S ^ m p #         3 8 z s s i i i ",
"i i i i i i i i i i i i i i i i i i i s d i @               w r z s s i i i i i i ",
"i i i i i i i i i i i i i i i i i i i i i s d 3     = 6 g z s s i i i i i i i i i ",
"i i i i i i i i i i i i i i i i i i i i i i i d h h s s i i i i i i i s i i i i i "
};
