/* XPM */
static xpm_row_t heart00_xpm[] = {
/* columns rows colors chars-per-pixel */
"64 64 40 1 ",
"  c #FF00F0",
". c #FF8383",
"X c #FF8484",
"o c #FF8585",
"O c #FF8686",
"+ c #FF8787",
"@ c #FF8888",
"# c #FF8989",
"$ c #FF8A8A",
"% c #FF8B8B",
"& c #FF8C8C",
"* c #FF8D8D",
"= c #FF8E8E",
"- c #FF8F8F",
"; c #FF9090",
": c #FF9191",
"> c #FF9292",
", c #FF9393",
"< c #FF9494",
"1 c #FF9595",
"2 c #FF9696",
"3 c #FF9797",
"4 c #FF9898",
"5 c #FF9999",
"6 c #FF9B9B",
"7 c #FF9C9C",
"8 c #FF9D9D",
"9 c #FF9F9F",
"0 c #FFA0A0",
"q c #FFA1A1",
"w c #FFA3A3",
"e c #FFA5A5",
"r c #FFAAAA",
"t c #FFACAC",
"y c #FFB7B7",
"u c #FFBABA",
"i c #FFBEBE",
"p c #FFBFBF",
"a c #FFC0C0",
"s c #FFCDCD",
/* pixels */
"                                                                ",
"                                                                ",
"                                                                ",
"                                                                ",
"                                                                ",
"                                                                ",
"                                                                ",
"                                                                ",
"                                                                ",
"                                                                ",
"                                                                ",
"                                                                ",
"                                                                ",
"                                                                ",
"                                                                ",
"                                                                ",
"                                                                ",
"                                                                ",
"                                                                ",
"                       ....          X.X.                       ",
"                     .......X      X#*XX.XX                     ",
"                    ......XXXX    X*<q*##XXX                    ",
"                   XXXX.XXXXXX#  X#4tue<*X...                   ",
"                   XX#*XX#X##X#*#*<epsur;X...                   ",
"                  X...#*#X#####*#*<qysp8*XX...                  ",
"                  ....X*<*##*#*;*#*;epq*#XXX..                  ",
"                  ..XXX#*<***#;;***;qe*##XXX..                  ",
"                  ..XX#X#*<<;**;;**4<;*XX#XX..                  ",
"                  ...X####*4<;*;;;44;###X#XX..                  ",
"                   .XXX###*;44<<<44;**####XX.                   ",
"                   .XX####**;48448<;****##XX.                   ",
"                    XXX##***;<4884<<;;**##XX                    ",
"                    XX##*;;;<<4884<;;**##XXX                    ",
"                     XX##**;;<44444;***##XX                     ",
"                      X####*;44<<<44;*###X                      ",
"                      XX##*;44;;<;;44*#XX                       ",
"                       #X##<4;**;***<4;XX                       ",
"                        #X<4****;***#<8;                        ",
"                         ;8;##*#**####;                         ",
"                          ;XX###**##X#                          ",
"                           XX######X#                           ",
"                            XXX#X#X#                            ",
"                             XXXX##                             ",
"                               XX                               ",
"                                                                ",
"                                                                ",
"                                                                ",
"                                                                ",
"                                                                ",
"                                                                ",
"                                                                ",
"                                                                ",
"                                                                ",
"                                                                ",
"                                                                ",
"                                                                ",
"                                                                ",
"                                                                ",
"                                                                ",
"                                                                ",
"                                                                ",
"                                                                ",
"                                                                ",
"                                                                "
};
