/* XPM */
static xpm_row_t paddle_xpm[] = {
/* columns rows colors chars-per-pixel */
"128 32 3 1 ",
"  c #FF00F0",
". c #000000 ",
"X c #ffffff",
/* pixels */
"            ........................................................................................................            ",
"         ..............................................................................................................         ",
"       .....XXXXXXXXXXXXXXXXXXXXXXXXXXXXXXXXXXXXXXXXXXXXXXXXXXXXXXXXXXXXXXXXXXXXXXXXXXXXXXXXXXXXXXXXXXXXXXXXXXXXXXXX.....       ",
"      ....XXXXXXXXXXXXXXXXXXXXXXXXXXXXXXXXXXXXXXXXXXXXXXXXXXXXXXXXXXXXXXXXXXXXXXXXXXXXXXXXXXXXXXXXXXXXXXXXXXXXXXXXXXXX....      ",
"     ...XXXXX......................................................................................................XXXXX...     ",
"    ...XXX............................................................................................................XXX...    ",
"   ...XXX..............................................................................................................XXX...   ",
"  ...XXX................................................................................................................XXX...  ",
"  ..XXX..................................................................................................................XXX..  ",
" ...XX....................................................................................................................XX... ",
" ..XX......................................................................................................................XX.. ",
" ..XX......................................................................................................................XX.. ",
"..XXX......................................................................................................................XXX..",
"..XX........................................................................................................................XX..",
"..XX........................................................................................................................XX..",
"..XX........................................................................................................................XX..",
"..XX........................................................................................................................XX..",
"..XX........................................................................................................................XX..",
"..XX........................................................................................................................XX..",
"..XXX......................................................................................................................XXX..",
" ..XX......................................................................................................................XX.. ",
" ..XX......................................................................................................................XX.. ",
" ...XX....................................................................................................................XX... ",
"  ..XXX..................................................................................................................XXX..  ",
"  ...XXX................................................................................................................XXX...  ",
"   ...XXX..............................................................................................................XXX...   ",
"    ...XXX............................................................................................................XXX...    ",
"     ...XXXXX......................................................................................................XXXXX...     ",
"      ....XXXXXXXXXXXXXXXXXXXXXXXXXXXXXXXXXXXXXXXXXXXXXXXXXXXXXXXXXXXXXXXXXXXXXXXXXXXXXXXXXXXXXXXXXXXXXXXXXXXXXXXXXXXX....      ",
"       .....XXXXXXXXXXXXXXXXXXXXXXXXXXXXXXXXXXXXXXXXXXXXXXXXXXXXXXXXXXXXXXXXXXXXXXXXXXXXXXXXXXXXXXXXXXXXXXXXXXXXXXXX.....       ",
"         ..............................................................................................................         ",
"            ........................................................................................................            "
};
